<svg width="169" height="51" viewBox="0 0 169 51" fill="none" xmlns="http://www.w3.org/2000/svg">
<path d="M162.409 1.82825C165.259 1.82825 167.752 4.08394 167.752 7.17067V44.5676C167.752 47.4169 165.496 49.91 162.409 49.91H6.29218C3.44289 49.91 0.949762 47.6543 0.949762 44.5676V7.05195C0.949762 4.20266 3.20545 1.70953 6.29218 1.70953H162.409M162.409 0.759766H6.29218C2.84929 0.759766 0 3.60906 0 7.05195V44.4489C0 47.8918 2.84929 50.741 6.29218 50.741H162.409C165.852 50.741 168.702 47.8918 168.702 44.4489V7.05195C168.583 3.60906 165.734 0.759766 162.409 0.759766Z" fill="#222222"/>
<rect y="0.759766" width="169" height="50" rx="6" fill="white"/>
<path d="M40.4589 24.5998C40.4589 21.1569 43.3082 19.3761 43.4269 19.3761C41.8835 17.1204 39.2717 16.6456 38.4406 16.6456C36.3037 16.4081 34.2854 17.9515 33.3356 17.9515C32.1484 17.9515 30.6051 16.6456 28.7055 16.7643C26.4499 16.7643 24.3129 18.0702 23.1257 20.2072C20.7513 24.3624 22.5321 30.5358 24.7878 33.9787C25.975 35.7595 27.3996 37.4216 29.0617 37.4216C30.7238 37.3029 31.4361 36.2344 33.4544 36.2344C35.4726 36.2344 36.1849 37.4216 37.847 37.1842C39.7465 37.1842 40.815 35.4034 42.0022 33.86C43.3082 31.9605 43.9018 30.1797 43.9018 29.9422C44.0205 30.1797 40.4589 28.755 40.4589 24.5998Z" fill="#222222"/>
<path d="M37.0159 14.5086C37.9657 13.3213 38.5593 11.778 38.4406 10.2346C37.1346 10.2346 35.4725 11.1844 34.4041 12.2529C33.573 13.2026 32.8607 14.9834 32.9794 16.4081C34.5228 16.5268 36.1849 15.6958 37.0159 14.5086Z" fill="#222222"/>
<path d="M62.3035 33.2664H56.4862L55.0616 37.4216H52.4497L58.1483 21.8692H60.7601L66.34 37.4216H63.7281L62.3035 33.2664ZM56.9611 31.2482H61.7099L59.4542 24.3624L56.9611 31.2482ZM78.4495 31.8418C78.4495 35.4034 76.5499 37.5403 73.7006 37.5403C72.1573 37.5403 70.8514 36.828 70.139 35.5221V41.1019H67.8834V26.0245H70.139V27.924C70.8514 26.7368 72.1573 25.9057 73.7006 25.9057C76.4312 25.9057 78.4495 28.1614 78.4495 31.8418ZM76.0751 31.8418C76.0751 29.5861 74.8879 27.924 73.107 27.924C71.445 27.924 70.139 29.4674 70.139 31.8418C70.139 34.2162 71.3262 35.7595 73.107 35.7595C74.8879 35.5221 76.0751 34.0974 76.0751 31.8418ZM90.9151 31.8418C90.9151 35.4034 89.0156 37.5403 86.1663 37.5403C84.6229 37.5403 83.317 36.828 82.6047 35.5221V41.1019H80.349V26.0245H82.486V27.924C83.1983 26.7368 84.5042 25.9057 86.0476 25.9057C88.8969 25.9057 90.9151 28.1614 90.9151 31.8418ZM88.422 31.8418C88.422 29.5861 87.2348 27.924 85.454 27.924C83.7919 27.924 82.486 29.4674 82.486 31.8418C82.486 34.2162 83.6732 35.7595 85.454 35.7595C87.3535 35.5221 88.422 34.0974 88.422 31.8418ZM98.9881 33.029C99.1068 34.5723 100.65 35.6408 102.668 35.6408C104.687 35.6408 106.111 34.691 106.111 33.1477C106.111 31.9605 105.28 31.2482 103.262 30.6546L101.244 30.1797C98.3945 29.4673 97.0886 28.1614 97.0886 26.0245C97.0886 23.2939 99.3442 21.3944 102.668 21.3944C105.993 21.3944 108.248 23.2939 108.248 26.0245H105.993C105.874 24.4811 104.568 23.5313 102.668 23.5313C100.769 23.5313 99.5817 24.4811 99.5817 25.787C99.5817 26.9742 100.413 27.5678 102.431 28.0427L104.093 28.5176C107.18 29.2299 108.486 30.5358 108.486 32.7915C108.486 35.6408 106.23 37.5403 102.431 37.5403C98.9881 37.5403 96.7324 35.7595 96.6137 32.9102C96.7324 33.2664 98.9881 33.029 98.9881 33.029ZM113.591 23.4126V26.1432H115.728V27.924H113.591V34.2162C113.591 35.1659 114.066 35.6408 115.015 35.6408H115.728V37.5403C115.49 37.5403 115.015 37.6591 114.422 37.6591C112.166 37.6591 111.335 36.828 111.335 34.691V27.924H109.673V26.0245H111.216V23.2939L113.591 23.4126ZM116.915 31.8418C116.915 28.2801 119.052 26.1432 122.257 26.1432C125.581 26.1432 127.6 28.3989 127.6 31.8418C127.6 35.4034 125.463 37.5403 122.257 37.5403C119.052 37.5403 116.915 35.4034 116.915 31.8418ZM125.344 31.8418C125.344 29.3486 124.157 27.924 122.376 27.924C120.476 27.924 119.408 29.3486 119.408 31.8418C119.408 34.3349 120.595 35.7595 122.376 35.7595C124.157 35.6408 125.344 34.2162 125.344 31.8418ZM129.618 26.0245H131.755V27.924C131.992 26.6181 133.18 25.9057 134.485 25.9057C134.723 25.9057 135.079 25.9057 135.317 26.0245V28.1614C135.198 28.0427 134.723 28.0427 134.367 28.0427C132.942 28.0427 131.992 28.9925 131.992 30.6546V37.4216H129.737C129.618 37.4216 129.618 26.0245 129.618 26.0245ZM146.12 34.0974C145.883 36.1157 143.864 37.5403 141.253 37.5403C137.928 37.5403 135.91 35.4034 135.91 31.8418C135.91 28.2801 137.928 25.9057 141.253 25.9057C144.339 25.9057 146.358 28.0427 146.358 31.4856V32.3166H138.166V32.5541C138.166 34.5723 139.353 35.7595 141.134 35.7595C142.44 35.7595 143.39 35.1659 143.746 34.2162C143.746 34.0974 146.12 34.0974 146.12 34.0974ZM138.166 30.6546H143.864C143.864 28.8737 142.677 27.8053 141.134 27.8053C139.472 27.8053 138.403 28.8737 138.166 30.6546ZM56.7236 10.1159C58.8606 10.1159 60.2853 11.4219 60.2853 13.7963C60.2853 16.1707 58.9793 17.4766 56.7236 17.4766H53.9931V9.99721H56.7236V10.1159ZM55.299 16.5268H56.7236C58.267 16.5268 59.098 15.5771 59.098 13.7963C59.098 12.0155 58.267 11.0657 56.7236 11.0657H55.299V16.5268ZM61.5912 14.8647C61.5912 12.9652 62.5409 12.0155 64.3217 12.0155C65.8651 12.0155 67.0523 13.2027 67.0523 14.8647C67.0523 16.7643 66.1026 17.714 64.3217 17.714C62.5409 17.714 61.5912 16.5268 61.5912 14.8647ZM65.7464 14.8647C65.7464 13.5588 65.1528 12.8465 64.203 12.8465C63.2533 12.8465 62.6597 13.5588 62.6597 14.8647C62.6597 16.1707 63.2533 16.883 64.203 16.883C65.1528 16.6455 65.7464 15.9332 65.7464 14.8647ZM73.8194 17.5953H72.6322L71.445 13.4401H71.3262L70.139 17.5953H68.9518L67.4085 12.0155H68.5957L69.5454 16.2894H69.6642L70.8514 12.0155H71.8011L72.9883 16.2894H73.107L74.0568 12.0155H75.244C75.4815 12.0155 73.8194 17.5953 73.8194 17.5953ZM76.7874 12.0155H77.7371V12.8465H77.8559C78.0933 12.2529 78.6869 11.8967 79.5179 11.8967C80.8239 11.8967 81.5362 12.6091 81.5362 14.0337V17.5953H80.349V14.1524C80.349 13.3214 79.8741 12.8465 79.1618 12.8465C78.3307 12.8465 77.8559 13.4401 77.8559 14.2711V17.5953H76.5499C76.7874 17.5953 76.7874 12.0155 76.7874 12.0155ZM83.317 9.75977H84.5042V17.714H83.317V9.75977ZM85.9288 14.8647C85.9288 12.9652 86.8786 12.0155 88.6594 12.0155C90.2028 12.0155 91.39 13.2027 91.39 14.8647C91.39 16.7643 90.4402 17.714 88.6594 17.714C86.9973 17.714 85.9288 16.5268 85.9288 14.8647ZM90.2028 14.8647C90.2028 13.5588 89.6092 12.8465 88.6594 12.8465C87.7097 12.8465 87.1161 13.5588 87.1161 14.8647C87.1161 16.1707 87.7097 16.883 88.6594 16.883C89.6092 16.6455 90.2028 15.9332 90.2028 14.8647ZM92.4585 15.9332C92.4585 14.9835 93.1708 14.3899 94.5954 14.1524L96.1388 14.0337V13.5588C96.1388 12.9652 95.6639 12.7278 94.9516 12.7278C94.358 12.7278 94.0018 12.9652 93.7644 13.3214H92.5772C92.6959 12.3716 93.527 11.778 94.8329 11.778C96.2575 11.778 96.9698 12.4903 96.9698 13.6775V17.5953H96.0201V16.7643H95.9014C95.6639 17.3579 94.9516 17.5953 94.2393 17.5953C93.1708 17.714 92.4585 17.0017 92.4585 15.9332ZM96.0201 15.5771V15.1022L94.5954 15.2209C93.8831 15.2209 93.4082 15.4583 93.4082 16.0519C93.4082 16.6455 93.8831 16.883 94.358 16.883C95.4265 16.6455 96.0201 16.2894 96.0201 15.5771ZM98.6319 14.8647C98.6319 13.0839 99.463 12.0155 100.888 12.0155C101.6 12.0155 102.312 12.4903 102.55 12.9652H102.668V9.75977H103.856V17.714H102.906V16.883H102.787C102.55 17.4766 101.837 17.8328 101.125 17.8328C99.463 17.714 98.6319 16.5268 98.6319 14.8647ZM99.7004 14.8647C99.7004 16.0519 100.294 16.7643 101.244 16.7643C102.194 16.7643 102.787 16.0519 102.787 14.8647C102.787 13.6775 102.194 12.9652 101.244 12.9652C100.294 12.8465 99.7004 13.5588 99.7004 14.8647ZM108.486 14.8647C108.486 12.9652 109.435 12.0155 111.216 12.0155C112.76 12.0155 113.947 13.2027 113.947 14.8647C113.947 16.7643 112.997 17.714 111.216 17.714C109.435 17.714 108.486 16.5268 108.486 14.8647ZM112.641 14.8647C112.641 13.5588 112.047 12.8465 111.098 12.8465C110.148 12.8465 109.554 13.5588 109.554 14.8647C109.554 16.1707 110.148 16.883 111.098 16.883C112.047 16.6455 112.641 15.9332 112.641 14.8647ZM115.134 12.0155H116.084V12.8465H116.203C116.44 12.2529 117.034 11.8967 117.865 11.8967C119.171 11.8967 119.883 12.6091 119.883 14.0337V17.5953H118.696V14.1524C118.696 13.3214 118.221 12.8465 117.508 12.8465C116.677 12.8465 116.203 13.4401 116.203 14.2711V17.5953H115.015L115.134 12.0155ZM126.175 10.4721V11.8967H127.481V12.8465H126.175V15.6958C126.175 16.2894 126.413 16.5268 127.006 16.5268H127.481V17.3579H126.887C125.581 17.3579 125.225 16.883 125.225 15.8145V12.8465H124.394V11.8967H125.225V10.4721H126.175ZM129.024 9.75977H130.212V12.9652H130.33C130.568 12.3716 131.161 12.0155 131.992 12.0155C133.18 12.0155 134.011 12.7278 134.011 14.1524V17.714H132.823V14.3899C132.823 13.5588 132.349 13.0839 131.636 13.0839C130.805 13.0839 130.212 13.6775 130.212 14.5086V17.8328H129.024C129.143 17.8328 129.024 9.75977 129.024 9.75977ZM140.303 16.1707C140.065 17.1204 139.116 17.714 137.928 17.714C136.385 17.714 135.317 16.5268 135.317 14.8647C135.317 12.9652 136.266 11.8967 137.928 11.8967C139.472 11.8967 140.54 12.8465 140.54 14.746V15.2209H136.504C136.504 16.1707 137.097 16.7643 137.928 16.7643C138.641 16.7643 139.116 16.5268 139.234 16.0519C139.234 15.9332 140.303 16.1707 140.303 16.1707ZM136.385 14.2711H139.234C139.234 13.4401 138.641 12.8465 137.81 12.8465C137.097 12.8465 136.504 13.4401 136.385 14.2711Z" fill="#222222"/>
</svg>
