<svg width="46" height="46" viewBox="0 0 46 46" fill="none" xmlns="http://www.w3.org/2000/svg">
<g clip-path="url(#clip0_5125_332)">
<path d="M45.5431 19.1534C45.3503 17.3931 43.9263 16.0257 42.1576 15.9021C40.6068 15.7929 39.0549 15.706 37.5454 15.6441C34.8557 15.531 32.1317 15.4851 29.436 15.5053C29.6149 11.6686 29.497 7.81526 29.0787 4.00006C28.8923 2.2945 27.5137 0.969452 25.8009 0.84941C19.9433 0.438787 14.0061 0.355225 8.15458 0.601239C6.69278 0.661979 5.20025 0.745451 3.71842 0.84941C2.00566 0.969452 0.626436 2.29432 0.438825 3.99997C-0.14593 9.33951 -0.14629 14.7562 0.437837 20.1C0.625807 21.8088 2.00548 23.1359 3.71797 23.2558L4.06282 23.2802C4.55314 23.313 4.93717 23.7233 4.93717 24.2143V27.4183C4.93717 28.1755 5.35839 28.8544 6.03668 29.1903C6.31693 29.3291 6.61713 29.3974 6.91543 29.3974C7.33837 29.3974 7.75744 29.26 8.10993 28.9914C8.77923 28.4821 9.41619 27.9631 10.0031 27.449C10.283 27.2038 10.3112 26.778 10.0659 26.4981C9.8207 26.2181 9.3949 26.19 9.11501 26.4352C8.55128 26.929 7.9384 27.4282 7.29335 27.9192C7.09927 28.0671 6.85317 28.0906 6.63474 27.9825C6.41568 27.874 6.28485 27.6631 6.28485 27.4183V24.2143C6.28485 23.0164 5.34833 22.0154 4.15528 21.9356L3.81249 21.9112C2.74999 21.8369 1.89407 21.0131 1.77762 19.9531C1.20409 14.707 1.20445 9.38893 1.77852 4.14697C1.89478 3.08968 2.75026 2.26826 3.81276 2.19377C5.28193 2.09071 6.76143 2.00796 8.21092 1.94776C14.0122 1.70399 19.8989 1.78665 25.7067 2.19377C26.7686 2.26826 27.6234 3.08951 27.739 4.1467C28.3141 9.39333 28.3141 14.7135 27.739 19.9594C27.7153 20.1757 27.6602 20.3854 27.5747 20.584C27.2489 21.345 26.5325 21.8534 25.7047 21.9112C21.8242 22.1844 17.8733 22.3127 13.961 22.2932C13.9557 22.2932 13.9505 22.2932 13.9453 22.2932C13.1954 22.2932 12.4958 22.6569 12.0715 23.2679C11.7736 23.6962 11.4096 24.1483 10.9897 24.6117C10.7398 24.8875 10.7607 25.3136 11.0365 25.5636C11.3122 25.8135 11.7384 25.7926 11.9884 25.5168C12.447 25.0107 12.8472 24.5131 13.1783 24.0371C13.3506 23.7888 13.6369 23.641 13.9463 23.641H13.9529C14.4523 23.6436 14.9523 23.6436 15.4527 23.6413C15.2468 27.7116 15.3672 31.8312 15.8122 35.8994C15.8526 36.2622 15.9451 36.6127 16.0862 36.9388C16.6285 38.2068 17.8211 39.0539 19.1976 39.1494C23.2722 39.4359 27.4172 39.57 31.5167 39.5499H31.5234C31.8532 39.5499 32.1597 39.7081 32.3443 39.974C33.7305 41.9688 35.9724 43.8732 37.609 45.1194C37.971 45.3952 38.4011 45.5363 38.8353 45.5363C39.1415 45.5363 39.4497 45.4662 39.7373 45.3237C40.4333 44.9791 40.8658 44.2823 40.8658 43.5052V40.1735C40.8658 39.6488 41.2759 39.2099 41.8003 39.1746L41.8154 39.1736C41.9305 39.1657 42.0456 39.1579 42.1579 39.1494C43.9268 39.0259 45.3506 37.6555 45.5439 35.8907C45.5638 35.709 45.5827 35.5272 45.6018 35.3444C45.6402 34.9742 45.3714 34.6429 45.0011 34.6045C44.6299 34.5658 44.2996 34.835 44.2612 35.2052C44.2425 35.3855 44.2237 35.5649 44.2041 35.7443C44.082 36.8602 43.182 37.7268 42.0605 37.8052C41.9476 37.8137 41.8355 37.8214 41.7235 37.829L41.709 37.83C40.4804 37.9128 39.518 38.9423 39.518 40.1736V43.5053C39.518 43.7703 39.3764 43.9986 39.1393 44.116C38.9025 44.2332 38.6358 44.2076 38.4258 44.0474C36.8662 42.8597 34.7371 41.0557 33.4514 39.2053C33.0148 38.5764 32.295 38.2023 31.5245 38.2023C31.5193 38.2023 31.5142 38.2023 31.509 38.2023C27.4433 38.2226 23.3333 38.0891 19.2917 37.8049C18.4213 37.7445 17.668 37.2096 17.3244 36.4066C17.2355 36.2008 17.1774 35.9799 17.1519 35.7515C16.7119 31.7288 16.5952 27.6539 16.8032 23.6289C19.8108 23.5896 22.8256 23.4649 25.7988 23.2557C27.1327 23.1627 28.2879 22.3422 28.813 21.116C28.9511 20.7956 29.0405 20.4557 29.0786 20.106C29.1972 19.0246 29.2905 17.94 29.361 16.8536C32.0618 16.8319 34.7928 16.8772 37.4893 16.9905C38.9863 17.052 40.5251 17.1381 42.0631 17.2464C43.1813 17.3245 44.0813 18.1881 44.2031 19.2999C44.6847 23.6986 44.7794 28.1556 44.4845 32.5466C44.4596 32.918 44.7404 33.2392 45.1116 33.2641C45.1271 33.2652 45.1423 33.2657 45.1575 33.2657C45.509 33.2657 45.8053 32.9929 45.8293 32.6369C46.1297 28.1673 46.0333 23.6307 45.5431 19.1534Z" fill="#222222"/>
<path d="M39.3177 28.8529C39.3284 28.323 39.127 27.8197 38.7505 27.4355C38.684 27.3677 38.613 27.3048 38.5382 27.2474C38.7335 26.9398 38.8468 26.5751 38.8468 26.1843C38.8468 25.6527 38.6397 25.1533 38.2647 24.7788C37.8899 24.4034 37.3906 24.1967 36.8589 24.1967H34.2026L35.202 22.0677C35.7682 20.8626 35.2481 19.4212 34.0425 18.8548C33.7186 18.7028 33.3738 18.6256 33.0173 18.6256C32.0849 18.6256 31.226 19.1709 30.8295 20.015L30.2135 21.3276C29.9006 21.9938 29.4108 22.5362 28.7973 22.8962C28.2007 23.2458 27.7316 23.7587 27.4308 24.3815C27.2168 24.2844 26.98 24.229 26.73 24.229H24.7008C23.7619 24.229 22.998 24.9928 22.998 25.9318V34.1269C22.998 35.0659 23.7619 35.8297 24.7008 35.8297H26.73C27.0506 35.8297 27.3498 35.7391 27.6061 35.5843C28.0859 35.8918 28.6439 36.0573 29.2269 36.0573H36.3872C37.4831 36.0573 38.3748 35.1654 38.3748 34.0693C38.3748 33.8241 38.3306 33.5846 38.2437 33.357C38.2415 33.351 38.2392 33.345 38.2368 33.3389C38.1917 33.2251 38.137 33.1167 38.0728 33.0144C38.5434 32.6505 38.8469 32.0805 38.8469 31.441C38.8469 31.0608 38.741 30.697 38.5434 30.3836C39.0034 30.0266 39.3056 29.4731 39.3177 28.8529ZM24.7006 34.4819C24.5048 34.4819 24.3456 34.3227 24.3456 34.1269V25.9318C24.3456 25.736 24.5048 25.5767 24.7006 25.5767H26.7298C26.9256 25.5767 27.0849 25.736 27.0849 25.9318V34.1269C27.0849 34.3227 26.9256 34.4819 26.7298 34.4819H24.7006ZM37.3308 29.4533H36.8587C36.4864 29.4533 36.1848 29.755 36.1848 30.1272C36.1848 30.4994 36.4864 30.8011 36.8587 30.8011C37.03 30.8011 37.1906 30.8673 37.3115 30.9884C37.4324 31.1091 37.499 31.2697 37.499 31.4409C37.499 31.7939 37.2118 32.0812 36.8587 32.0812H36.387C36.0148 32.0812 35.7132 32.3829 35.7132 32.7551C35.7132 33.1272 36.0148 33.429 36.387 33.429C36.5582 33.429 36.719 33.4955 36.8397 33.6162C36.9002 33.6767 36.9473 33.7472 36.9799 33.826C36.9808 33.8284 36.9817 33.8307 36.9826 33.833C37.0119 33.908 37.0268 33.9874 37.0268 34.0692C37.0268 34.4222 36.7398 34.7094 36.387 34.7094H29.2268C28.9295 34.7094 28.6448 34.6303 28.3941 34.4849C28.4189 34.3694 28.4327 34.2497 28.4327 34.1268C28.4327 34.1268 28.4327 25.9215 28.4326 25.9192C28.427 25.6106 28.4874 25.3115 28.6123 25.0302C28.7947 24.6201 29.0941 24.2842 29.4788 24.0589C30.3282 23.5605 31.0041 22.8141 31.4332 21.9005L32.0493 20.5879C32.2247 20.2146 32.6046 19.9734 33.0171 19.9734C33.1739 19.9734 33.326 20.0074 33.4691 20.0747C34.0021 20.3251 34.2321 20.962 33.9818 21.4948L32.5405 24.5651C32.4451 24.7684 32.4571 25.0061 32.5728 25.1986C32.5833 25.2159 32.5894 25.225 32.5958 25.2348C32.7198 25.4278 32.9334 25.5445 33.1628 25.5445H36.8587C37.03 25.5445 37.1906 25.6107 37.3115 25.7319C37.4325 25.8525 37.499 26.0132 37.499 26.1843C37.499 26.5376 37.2118 26.8249 36.8587 26.8249C36.4864 26.8249 36.1848 27.1267 36.1848 27.4988C36.1848 27.871 36.4864 28.1727 36.8587 28.1727H37.3011C37.4822 28.1727 37.6595 28.2478 37.7879 28.3788C37.9089 28.5022 37.9736 28.6609 37.9702 28.826C37.9635 29.172 37.6766 29.4533 37.3308 29.4533Z" fill="#222222"/>
<path d="M20.984 9.15256C20.984 7.77846 20.3112 6.66052 19.4842 6.66052C18.6573 6.66052 17.9846 7.77846 17.9846 9.15256C17.9846 10.5267 18.6573 11.6446 19.4842 11.6446C20.3112 11.6446 20.984 10.5267 20.984 9.15256Z" fill="#222222"/>
<path d="M11.5335 9.15256C11.5335 7.77846 10.8608 6.66052 10.0338 6.66052C9.2069 6.66052 8.53418 7.77846 8.53418 9.15256C8.53418 10.5267 9.2069 11.6446 10.0338 11.6446C10.8608 11.6446 11.5335 10.5267 11.5335 9.15256Z" fill="#222222"/>
<path d="M14.7591 18.027C17.1758 18.027 19.3443 16.5874 20.2837 14.3594C20.4282 14.0164 20.2674 13.6213 19.9245 13.4766C19.5813 13.3322 19.1863 13.4929 19.0417 13.8358C18.3136 15.5631 16.6325 16.6792 14.7591 16.6792C12.8856 16.6792 11.2046 15.5631 10.4764 13.8358C10.3319 13.4929 9.93641 13.3323 9.59363 13.4766C9.25075 13.6212 9.08992 14.0164 9.23449 14.3594C10.1737 16.5874 12.3423 18.027 14.7591 18.027Z" fill="#222222"/>
</g>
<defs>
<clipPath id="clip0_5125_332">
<rect width="46" height="46" fill="white"/>
</clipPath>
</defs>
</svg>
