<svg width="46" height="46" viewBox="0 0 46 46" fill="none" xmlns="http://www.w3.org/2000/svg">
<path fill-rule="evenodd" clip-rule="evenodd" d="M23.0009 14.1395C27.3994 14.1395 31.3821 15.9224 34.2644 18.8057C37.1468 21.6881 38.9307 25.6708 38.9307 30.0702C38.9307 34.4697 37.1477 38.4514 34.2644 41.3338C31.3811 44.2161 27.3994 45.9991 23.0009 45.9991C18.6024 45.9991 14.6197 44.2161 11.7364 41.3338C8.85403 38.4514 7.07107 34.4687 7.07107 30.0702C7.07107 25.6717 8.85403 21.689 11.7364 18.8057C14.6197 15.9224 18.6024 14.1395 23.0009 14.1395ZM7.82639 5.4188C7.76567 5.22652 7.61663 5.06552 7.40963 4.99928C7.07199 4.89072 6.71043 5.07656 6.60187 5.4142L5.44543 8.99852L1.72495 8.99116C1.51059 8.97552 1.29255 9.06844 1.15731 9.2552C0.94847 9.54316 1.01287 9.9452 1.30083 10.1531L4.35247 12.3611L3.18131 15.9418L3.18315 15.9427C3.12243 16.1313 3.14911 16.3456 3.27423 16.5186C3.48307 16.8047 3.88327 16.8682 4.16939 16.6594L7.21367 14.4385L10.2184 16.6299C10.3831 16.7698 10.614 16.8231 10.8339 16.7514C11.1715 16.6419 11.3564 16.2785 11.246 15.9418L10.0749 12.3611L13.1265 10.1531L13.1256 10.1522C13.2866 10.0354 13.3906 9.84676 13.3906 9.6324C13.3906 9.2782 13.1035 8.99116 12.7493 8.99116L8.98191 8.99852L7.82639 5.4188ZM7.90275 9.83664L7.21275 7.7004L6.52275 9.83664C6.43995 10.0952 6.19799 10.2819 5.91187 10.2819L3.66523 10.2773L5.48499 11.5938C5.70487 11.753 5.80699 12.041 5.71867 12.3133L5.02039 14.4495L6.82543 13.133C7.04531 12.9665 7.35627 12.9545 7.59087 13.1256L9.40603 14.4495L8.71511 12.3372C8.61759 12.0732 8.70223 11.7668 8.94143 11.5938L10.7612 10.2773L8.54491 10.2819C8.26155 10.2957 7.99383 10.1191 7.90275 9.83664ZM39.4008 5.4188C39.3401 5.22652 39.191 5.06552 38.984 4.99928C38.6464 4.89072 38.2848 5.07656 38.1763 5.4142L37.0198 8.99852L33.2994 8.99116C33.085 8.97552 32.8669 9.06844 32.7317 9.2552C32.5229 9.54316 32.5873 9.9452 32.8752 10.1531L35.9269 12.3611L34.7557 15.9418L34.7575 15.9427C34.6968 16.1313 34.7235 16.3456 34.8486 16.5186C35.0575 16.8047 35.4577 16.8682 35.7438 16.6594L38.7881 14.4385L41.7928 16.6299C41.9575 16.7698 42.1884 16.8231 42.4083 16.7514C42.7459 16.6419 42.9308 16.2785 42.8204 15.9418L41.6493 12.3611L44.7009 10.1531L44.7 10.1522C44.861 10.0354 44.965 9.84676 44.965 9.6324C44.965 9.2782 44.6779 8.99116 44.3237 8.99116L40.5563 8.99852L39.4008 5.4188ZM39.4781 9.83664L38.7881 7.7004L38.0981 9.83664C38.0153 10.0952 37.7733 10.2819 37.4872 10.2819L35.2405 10.2773L37.0603 11.5938C37.2802 11.753 37.3823 12.041 37.294 12.3133L36.5957 14.4495L38.4007 13.133C38.6206 12.9665 38.9316 12.9545 39.1662 13.1256L40.9813 14.4495L40.2904 12.3372C40.1929 12.0732 40.2775 11.7668 40.5167 11.5938L42.3365 10.2773L40.1202 10.2819C39.8359 10.2957 39.5682 10.1191 39.4781 9.83664ZM23.6136 0.451724L24.7691 4.03144L28.5365 4.02408C28.8907 4.02408 29.1777 4.31112 29.1777 4.66532C29.1777 4.87876 29.0729 5.06828 28.9128 5.18512L28.9137 5.18604L25.8621 7.39404L27.0332 10.9747C27.1427 11.3123 26.9587 11.6748 26.6211 11.7843C26.4012 11.856 26.1703 11.8018 26.0056 11.6628L23.0009 9.4714L19.9566 11.6923C19.6705 11.9011 19.2694 11.8376 19.0614 11.5515C18.9354 11.3786 18.9087 11.1642 18.9704 10.9756L18.9685 10.9747L20.1397 7.39404L17.088 5.18604C16.8001 4.9772 16.7366 4.57516 16.9445 4.28812C17.0798 4.10136 17.2978 4.00844 17.5121 4.02408L21.2326 4.03144L22.39 0.447124C22.4986 0.109484 22.8601 -0.0763561 23.1978 0.0322039C23.4038 0.0984439 23.5529 0.259444 23.6136 0.451724ZM23.6909 4.86956L23.0009 2.73332L22.3109 4.86956C22.2281 5.12808 21.9861 5.31484 21.7 5.31484L19.4543 5.31024L21.274 6.62676C21.4939 6.78592 21.596 7.07388 21.5077 7.3462L20.8094 9.48244L22.6145 8.16592C22.8344 7.9994 23.1453 7.98744 23.3799 8.15856L25.1951 9.48244L24.5042 7.37012C24.4066 7.10608 24.4913 6.79972 24.7305 6.62676L26.5502 5.31024L24.334 5.31484C24.0487 5.32772 23.781 5.152 23.6909 4.86956ZM19.4754 27.4418L19.4883 35.7816H27.8649C28.1446 35.7816 28.4003 35.6877 28.5972 35.5267C28.795 35.3648 28.9385 35.1348 28.9947 34.8625L30.2394 28.8006C30.2762 28.6221 30.2744 28.451 30.2348 28.2918C30.1953 28.1327 30.118 27.98 30.0021 27.8383C29.888 27.6975 29.7546 27.5917 29.6074 27.5218C29.4611 27.4519 29.2937 27.4169 29.1087 27.4169H24.7093C24.3533 27.4169 24.0653 27.129 24.0653 26.7729C24.0653 26.68 24.0846 26.5926 24.1205 26.5126L24.2604 26.1151C24.9577 24.1298 25.3276 23.0764 24.3579 22.1757C24.2604 22.0846 24.1536 22.0239 24.0432 21.9935C23.9328 21.9632 23.8086 21.9613 23.6771 21.9898C23.5455 22.0184 23.4333 22.0708 23.3459 22.1435C23.2575 22.2171 23.1858 22.3164 23.1352 22.4397L21.4065 26.5779C21.0588 27.4096 20.2225 27.4684 19.4754 27.4418ZM18.2058 36.3372L18.1911 26.8327C18.0651 26.1556 16.9243 25.9992 16.9243 27.1924V36.0695C16.9243 37.1468 17.9179 37.3189 18.2058 36.3372ZM27.8649 37.0696C28.4464 37.0696 28.9836 36.8681 29.4077 36.5231C29.83 36.1781 30.1355 35.6914 30.2532 35.1201L31.498 29.0582C31.5734 28.6902 31.5679 28.3296 31.4833 27.9855C31.3986 27.6423 31.2367 27.3203 30.9993 27.0287C30.7611 26.7361 30.4777 26.5126 30.1566 26.3598C29.8356 26.2071 29.4832 26.1289 29.1097 26.1289H25.6164C26.3975 23.886 26.7305 22.6246 25.2337 21.2345C24.9844 21.0027 24.6946 20.8417 24.3809 20.7552C24.0672 20.6687 23.7369 20.6595 23.4057 20.7313C23.0736 20.803 22.7773 20.9484 22.5262 21.1572C22.2759 21.3652 22.079 21.632 21.9475 21.9466L20.2188 26.0848C20.1765 26.1869 19.7137 26.1694 19.3163 26.1492C18.5104 24.3423 15.6354 24.7296 15.6354 27.1934V36.0704C15.6354 38.4523 18.3705 39.0752 19.2988 37.0696H27.8649ZM23.0009 16.8277C19.3448 16.8277 16.0337 18.3098 13.638 20.7064C11.2414 23.103 9.75931 26.4132 9.75931 30.0693C9.75931 33.7254 11.2414 37.0364 13.638 39.4321C16.0346 41.8287 19.3448 43.3108 23.0009 43.3108C26.6569 43.3108 29.968 41.8287 32.3637 39.4321C34.7603 37.0355 36.2424 33.7254 36.2424 30.0693C36.2424 26.4132 34.7603 23.1021 32.3637 20.7064C29.968 18.3098 26.6569 16.8277 23.0009 16.8277ZM31.4529 21.6172C29.29 19.4543 26.3018 18.1157 23.0009 18.1157C19.6999 18.1157 16.7118 19.4534 14.5479 21.6172C12.385 23.7802 11.0464 26.7683 11.0464 30.0693C11.0464 33.3702 12.3841 36.3584 14.5479 38.5222C16.7108 40.6852 19.6999 42.0238 23.0009 42.0238C26.3018 42.0238 29.29 40.6861 31.4529 38.5222C33.6158 36.3593 34.9544 33.3702 34.9544 30.0693C34.9544 26.7683 33.6167 23.7802 31.4529 21.6172ZM33.3545 19.7156C30.7049 17.066 27.0443 15.4275 23.0009 15.4275C18.9575 15.4275 15.2968 17.066 12.6472 19.7156C9.99759 22.3652 8.35907 26.0259 8.35907 30.0693C8.35907 34.1127 9.99759 37.7734 12.6472 40.423C15.2968 43.0726 18.9575 44.7111 23.0009 44.7111C27.0443 44.7111 30.7049 43.0726 33.3545 40.423C36.0041 37.7734 37.6427 34.1127 37.6427 30.0693C37.6427 26.0259 36.0041 22.3652 33.3545 19.7156Z" fill="#222222"/>
</svg>
