<svg width="169" height="51" viewBox="0 0 169 51" fill="none" xmlns="http://www.w3.org/2000/svg">
<rect y="0.759766" width="169" height="50" rx="6" fill="white"/>
<path d="M162.409 1.82831C165.259 1.82831 167.752 4.08399 167.752 7.17072V44.5676C167.752 47.4169 165.496 49.9101 162.409 49.9101H6.29218C3.44289 49.9101 0.949762 47.6544 0.949762 44.5676V7.17072C0.949762 4.32143 3.20545 1.82831 6.29218 1.82831H162.409ZM162.409 0.87854H6.29218C2.84929 0.87854 0 3.72783 0 7.17072V44.5676C0 48.0105 2.84929 50.8598 6.29218 50.8598H162.409C165.852 50.8598 168.702 48.0105 168.702 44.5676V7.17072C168.583 3.72783 165.852 0.87854 162.409 0.87854Z" fill="white"/>
<path d="M59.3603 13.5816C59.3603 14.5314 59.1229 15.4811 58.4105 16.0747C57.6982 16.7871 56.8672 17.2619 55.68 17.2619C54.4928 17.2619 53.6617 16.7871 52.9494 16.0747C52.2371 15.3624 51.7622 14.4126 51.7622 13.3442C51.7622 12.157 52.2371 11.3259 52.9494 10.6136C53.6617 9.90127 54.6115 9.42639 55.68 9.42639C56.2736 9.42639 56.6297 9.54511 57.2233 9.66383C57.6982 9.78255 58.0544 10.1387 58.4105 10.4949L57.6982 11.2072C57.2233 10.6136 56.511 10.3761 55.68 10.3761C54.8489 10.3761 54.2553 10.6136 53.6617 11.2072C53.0681 11.8008 52.8307 12.5131 52.8307 13.3442C52.8307 14.1752 53.0681 14.8875 53.6617 15.4811C54.2553 16.0747 54.9677 16.3122 55.68 16.3122C56.511 16.3122 57.2233 16.0747 57.8169 15.4811C58.2918 15.0062 58.4105 14.6501 58.4105 13.9378H55.68V12.988H59.2416C59.3603 13.3442 59.3603 13.4629 59.3603 13.5816ZM65.0589 10.6136H61.616V13.1067H64.8214V13.819H61.616V16.1934H65.0589V17.0245H60.6662V9.54511H65.0589V10.6136ZM69.2141 17.0245H68.2643V10.6136H66.1274V9.66383H71.2323V10.4949H69.0954V17.1432H69.2141V17.0245ZM74.9127 17.0245V9.54511H75.8624V17.0245H74.9127ZM80.2551 17.0245H79.3053V10.6136H77.2871V9.66383H82.3921V10.4949H80.2551V17.0245ZM92.1271 16.1934C91.4148 16.9058 90.465 17.3807 89.3966 17.3807C88.2094 17.3807 87.3783 16.9058 86.666 16.1934C85.9537 15.4811 85.4788 14.5314 85.4788 13.4629C85.4788 12.5131 85.9537 11.4446 86.666 10.7323C87.2596 9.90127 88.2094 9.42639 89.2778 9.42639C90.465 9.42639 91.2961 9.90127 92.0084 10.6136C92.7207 11.3259 93.1956 12.2757 93.1956 13.3442C93.1956 14.4126 92.8395 15.2437 92.1271 16.1934ZM87.2596 15.4811C87.8532 16.0747 88.5655 16.3122 89.2778 16.3122C89.9902 16.3122 90.7025 16.0747 91.2961 15.4811C91.8897 14.8875 92.1271 14.1752 92.1271 13.3442C92.1271 12.5131 91.8897 11.8008 91.2961 11.2072C90.7025 10.6136 89.9902 10.3761 89.2778 10.3761C88.5655 10.3761 87.8532 10.6136 87.2596 11.2072C86.666 11.8008 86.4286 12.5131 86.4286 13.3442C86.4286 14.1752 86.666 14.8875 87.2596 15.4811ZM94.6203 17.0245V9.54511H95.8075L99.3691 15.4811V9.54511H100.319V17.0245H99.3691L95.4513 10.851V17.0245H94.6203Z" fill="#222222" stroke="#222222" stroke-width="0.2413" stroke-miterlimit="10"/>
<mask id="path-4-inside-1_7_1954" fill="white">
<path d="M85.2411 28.0654C82.2731 28.0654 79.8987 30.3211 79.8987 33.4078C79.8987 36.3758 82.2731 38.7502 85.2411 38.7502C88.2091 38.7502 90.5836 36.4946 90.5836 33.4078C90.5836 30.2024 88.0904 28.0654 85.2411 28.0654ZM85.2411 36.4946C83.6978 36.4946 82.2731 35.1886 82.2731 33.2891C82.2731 31.3896 83.6978 30.0837 85.2411 30.0837C86.7845 30.0837 88.2091 31.3896 88.2091 33.2891C88.3279 35.1886 86.7845 36.4946 85.2411 36.4946ZM73.7253 28.0654C70.7573 28.0654 68.3828 30.3211 68.3828 33.4078C68.3828 36.3758 70.7573 38.7502 73.7253 38.7502C76.6933 38.7502 79.0677 36.4946 79.0677 33.4078C78.949 30.2024 76.5746 28.0654 73.7253 28.0654ZM73.7253 36.4946C72.1819 36.4946 70.7573 35.1886 70.7573 33.2891C70.7573 31.3896 72.1819 30.0837 73.7253 30.0837C75.2686 30.0837 76.6933 31.3896 76.6933 33.2891C76.6933 35.1886 75.2686 36.4946 73.7253 36.4946ZM59.835 29.6088V31.8645H65.2961C65.1774 33.1704 64.7025 34.0014 63.9902 34.7138C63.2779 35.4261 61.9719 36.3758 59.835 36.3758C56.5108 36.3758 54.0177 33.6453 54.0177 30.3211C54.0177 26.9969 56.6295 24.2664 59.835 24.2664C61.7345 24.2664 63.0404 24.9787 63.8715 25.8097L65.4148 24.2664C64.1089 23.1979 62.2094 22.1294 59.5975 22.1294C54.9674 22.1294 51.2871 25.8097 51.2871 30.4398C51.2871 35.0699 55.2049 38.7502 59.5975 38.7502C61.9719 38.7502 63.8715 37.9192 65.2961 36.4946C66.7208 35.0699 67.3144 32.9329 67.3144 31.1521C67.3144 30.5585 67.3144 30.2024 67.1956 29.7275L59.835 29.6088ZM116.346 31.3896C115.871 30.2024 114.684 28.0654 111.953 28.0654C109.223 28.0654 106.967 30.2024 106.967 33.4078C106.967 36.3758 109.223 38.7502 112.309 38.7502C114.684 38.7502 116.227 37.3256 116.702 36.4946L114.803 35.3074C114.209 36.1384 113.378 36.732 112.191 36.732C111.003 36.732 110.172 36.1384 109.579 35.1886L116.702 32.2206L116.346 31.3896ZM109.223 33.1704C109.223 31.1521 110.766 29.9649 111.953 29.9649C112.784 29.9649 113.615 30.4398 113.971 31.1521L109.223 33.1704ZM103.287 38.3941H105.542V22.723H103.287V38.3941ZM99.6063 29.2526C99.0127 28.659 98.0629 28.0654 96.757 28.0654C94.0265 28.0654 91.652 30.3211 91.652 33.4078C91.652 36.3758 94.0265 38.7502 96.757 38.7502C98.0629 38.7502 99.0127 38.1566 99.6063 37.563H99.725V38.2754C99.725 40.2936 98.5378 41.4808 96.8757 41.4808C95.4511 41.4808 94.62 40.531 94.1452 39.5813L92.1269 40.4123C92.7205 41.837 94.2639 43.6178 96.8757 43.6178C99.6063 43.6178 101.862 42.0744 101.862 38.0379V28.4216H99.725L99.6063 29.2526ZM96.8757 36.4946C95.3324 36.4946 93.9077 35.1886 93.9077 33.2891C93.9077 31.3896 95.2136 29.9649 96.8757 29.9649C98.4191 29.9649 99.725 31.3896 99.725 33.2891C99.725 35.1886 98.4191 36.4946 96.8757 36.4946ZM127.387 22.723H121.807V38.3941H124.063V32.3393H127.387C129.999 32.3393 132.492 30.4398 132.492 27.4718C132.492 24.5038 129.88 22.723 127.387 22.723ZM127.387 30.2024H124.063V24.86H127.387C129.049 24.86 130.117 26.2846 130.117 27.5905C129.999 28.7777 129.049 30.2024 127.387 30.2024ZM141.752 28.0654C140.09 28.0654 138.309 28.7777 137.597 30.5585L139.615 31.3896C140.09 30.5585 140.921 30.2024 141.752 30.2024C142.939 30.2024 144.126 30.9147 144.126 32.2206V32.3393C143.652 32.1019 142.821 31.7457 141.752 31.7457C139.496 31.7457 137.359 33.0517 137.359 35.3074C137.359 37.4443 139.259 38.7502 141.277 38.7502C142.821 38.7502 143.652 38.0379 144.245 37.2069H144.364V38.3941H146.62V32.3393C146.501 29.4901 144.364 28.0654 141.752 28.0654ZM141.515 36.4946C140.802 36.4946 139.615 36.0197 139.615 35.1886C139.615 34.0014 140.921 33.5265 141.989 33.5265C142.939 33.5265 143.533 33.764 144.126 34.1202C144.126 35.5448 142.821 36.4946 141.515 36.4946ZM154.693 28.3029L151.962 35.0699H151.843L149.113 28.3029H146.501L150.656 37.8005L148.282 43.1429H150.656L157.067 28.4216H154.693V28.3029ZM133.798 38.3941H136.053V22.723H133.798V38.3941Z"/>
</mask>
<path d="M85.2411 28.0654C82.2731 28.0654 79.8987 30.3211 79.8987 33.4078C79.8987 36.3758 82.2731 38.7502 85.2411 38.7502C88.2091 38.7502 90.5836 36.4946 90.5836 33.4078C90.5836 30.2024 88.0904 28.0654 85.2411 28.0654ZM85.2411 36.4946C83.6978 36.4946 82.2731 35.1886 82.2731 33.2891C82.2731 31.3896 83.6978 30.0837 85.2411 30.0837C86.7845 30.0837 88.2091 31.3896 88.2091 33.2891C88.3279 35.1886 86.7845 36.4946 85.2411 36.4946ZM73.7253 28.0654C70.7573 28.0654 68.3828 30.3211 68.3828 33.4078C68.3828 36.3758 70.7573 38.7502 73.7253 38.7502C76.6933 38.7502 79.0677 36.4946 79.0677 33.4078C78.949 30.2024 76.5746 28.0654 73.7253 28.0654ZM73.7253 36.4946C72.1819 36.4946 70.7573 35.1886 70.7573 33.2891C70.7573 31.3896 72.1819 30.0837 73.7253 30.0837C75.2686 30.0837 76.6933 31.3896 76.6933 33.2891C76.6933 35.1886 75.2686 36.4946 73.7253 36.4946ZM59.835 29.6088V31.8645H65.2961C65.1774 33.1704 64.7025 34.0014 63.9902 34.7138C63.2779 35.4261 61.9719 36.3758 59.835 36.3758C56.5108 36.3758 54.0177 33.6453 54.0177 30.3211C54.0177 26.9969 56.6295 24.2664 59.835 24.2664C61.7345 24.2664 63.0404 24.9787 63.8715 25.8097L65.4148 24.2664C64.1089 23.1979 62.2094 22.1294 59.5975 22.1294C54.9674 22.1294 51.2871 25.8097 51.2871 30.4398C51.2871 35.0699 55.2049 38.7502 59.5975 38.7502C61.9719 38.7502 63.8715 37.9192 65.2961 36.4946C66.7208 35.0699 67.3144 32.9329 67.3144 31.1521C67.3144 30.5585 67.3144 30.2024 67.1956 29.7275L59.835 29.6088ZM116.346 31.3896C115.871 30.2024 114.684 28.0654 111.953 28.0654C109.223 28.0654 106.967 30.2024 106.967 33.4078C106.967 36.3758 109.223 38.7502 112.309 38.7502C114.684 38.7502 116.227 37.3256 116.702 36.4946L114.803 35.3074C114.209 36.1384 113.378 36.732 112.191 36.732C111.003 36.732 110.172 36.1384 109.579 35.1886L116.702 32.2206L116.346 31.3896ZM109.223 33.1704C109.223 31.1521 110.766 29.9649 111.953 29.9649C112.784 29.9649 113.615 30.4398 113.971 31.1521L109.223 33.1704ZM103.287 38.3941H105.542V22.723H103.287V38.3941ZM99.6063 29.2526C99.0127 28.659 98.0629 28.0654 96.757 28.0654C94.0265 28.0654 91.652 30.3211 91.652 33.4078C91.652 36.3758 94.0265 38.7502 96.757 38.7502C98.0629 38.7502 99.0127 38.1566 99.6063 37.563H99.725V38.2754C99.725 40.2936 98.5378 41.4808 96.8757 41.4808C95.4511 41.4808 94.62 40.531 94.1452 39.5813L92.1269 40.4123C92.7205 41.837 94.2639 43.6178 96.8757 43.6178C99.6063 43.6178 101.862 42.0744 101.862 38.0379V28.4216H99.725L99.6063 29.2526ZM96.8757 36.4946C95.3324 36.4946 93.9077 35.1886 93.9077 33.2891C93.9077 31.3896 95.2136 29.9649 96.8757 29.9649C98.4191 29.9649 99.725 31.3896 99.725 33.2891C99.725 35.1886 98.4191 36.4946 96.8757 36.4946ZM127.387 22.723H121.807V38.3941H124.063V32.3393H127.387C129.999 32.3393 132.492 30.4398 132.492 27.4718C132.492 24.5038 129.88 22.723 127.387 22.723ZM127.387 30.2024H124.063V24.86H127.387C129.049 24.86 130.117 26.2846 130.117 27.5905C129.999 28.7777 129.049 30.2024 127.387 30.2024ZM141.752 28.0654C140.09 28.0654 138.309 28.7777 137.597 30.5585L139.615 31.3896C140.09 30.5585 140.921 30.2024 141.752 30.2024C142.939 30.2024 144.126 30.9147 144.126 32.2206V32.3393C143.652 32.1019 142.821 31.7457 141.752 31.7457C139.496 31.7457 137.359 33.0517 137.359 35.3074C137.359 37.4443 139.259 38.7502 141.277 38.7502C142.821 38.7502 143.652 38.0379 144.245 37.2069H144.364V38.3941H146.62V32.3393C146.501 29.4901 144.364 28.0654 141.752 28.0654ZM141.515 36.4946C140.802 36.4946 139.615 36.0197 139.615 35.1886C139.615 34.0014 140.921 33.5265 141.989 33.5265C142.939 33.5265 143.533 33.764 144.126 34.1202C144.126 35.5448 142.821 36.4946 141.515 36.4946ZM154.693 28.3029L151.962 35.0699H151.843L149.113 28.3029H146.501L150.656 37.8005L148.282 43.1429H150.656L157.067 28.4216H154.693V28.3029ZM133.798 38.3941H136.053V22.723H133.798V38.3941Z" fill="#222222" stroke="#222222" stroke-width="2" mask="url(#path-4-inside-1_7_1954)"/>
<path d="M13.1781 10.3761C12.9406 10.6135 12.5845 11.3259 12.5845 12.0382V39.5813C12.5845 40.2936 12.8219 41.006 13.1781 41.2434L13.2968 41.3621L28.7304 25.9285V25.691L13.1781 10.3761Z" fill="url(#paint0_linear_7_1954)"/>
<path d="M33.9541 31.1522L28.8491 26.0473V25.8098L33.9541 20.7048H34.0728L40.2463 24.1477C41.9084 25.0975 41.9084 26.7596 40.2463 27.7093L33.9541 31.1522Z" fill="url(#paint1_linear_7_1954)"/>
<path d="M34.0728 31.0335L28.7303 25.691L13.178 41.2434C13.7716 41.837 14.7213 41.9557 15.7898 41.3621L34.0728 31.0335Z" fill="url(#paint2_linear_7_1954)"/>
<path d="M34.0728 20.586L15.7898 10.1387C14.8401 9.54505 13.7716 9.54505 13.178 10.2574L28.7303 25.8097L34.0728 20.586Z" fill="url(#paint3_linear_7_1954)"/>
<path opacity="0.2" d="M33.954 31.0334L15.7898 41.3621C14.84 41.9557 13.8902 41.9557 13.4153 41.3621L13.2966 41.4808L13.4153 41.5996C14.009 42.1932 14.84 42.1932 15.7898 41.5996L33.954 31.0334Z" fill="#222222"/>
<path opacity="0.12" d="M13.1781 41.2435C12.9406 40.7686 12.5845 40.2937 12.5845 39.5814V39.7001C12.5845 40.4124 12.8219 41.1247 13.1781 41.3622V41.2435ZM40.2463 27.4719L33.9541 31.0335L34.0729 31.1522L40.2463 27.7093C41.0774 27.2345 41.5522 26.5221 41.5522 25.8098C41.4335 26.5221 40.9586 26.997 40.2463 27.4719Z" fill="#222222"/>
<path opacity="0.25" d="M15.7897 10.4948L40.1274 24.3851C40.9584 24.86 41.4333 25.3349 41.4333 25.9285C41.4333 25.2162 40.9584 24.6226 40.1274 24.029L15.7897 10.1387C14.1276 9.18893 12.703 10.02 12.703 12.0382V12.1569C12.5842 10.1387 14.1276 9.42636 15.7897 10.4948Z" fill="#222222"/>
<defs>
<linearGradient id="paint0_linear_7_1954" x1="27.4366" y1="11.7563" x2="6.49626" y2="32.6968" gradientUnits="userSpaceOnUse">
<stop stop-color="#00A0FF"/>
<stop offset="0.007" stop-color="#00A1FF"/>
<stop offset="0.26" stop-color="#00BEFF"/>
<stop offset="0.512" stop-color="#00D2FF"/>
<stop offset="0.76" stop-color="#00DFFF"/>
<stop offset="1" stop-color="#00E3FF"/>
</linearGradient>
<linearGradient id="paint1_linear_7_1954" x1="42.454" y1="25.9102" x2="12.2635" y2="25.9102" gradientUnits="userSpaceOnUse">
<stop stop-color="#FFE000"/>
<stop offset="0.409" stop-color="#FFBD00"/>
<stop offset="0.775" stop-color="#FFA500"/>
<stop offset="1" stop-color="#FF9C00"/>
</linearGradient>
<linearGradient id="paint2_linear_7_1954" x1="31.178" y1="28.6738" x2="2.78188" y2="57.0699" gradientUnits="userSpaceOnUse">
<stop stop-color="#FF3A44"/>
<stop offset="1" stop-color="#C31162"/>
</linearGradient>
<linearGradient id="paint3_linear_7_1954" x1="9.31482" y1="1.13882" x2="21.9946" y2="13.82" gradientUnits="userSpaceOnUse">
<stop stop-color="#32A071"/>
<stop offset="0.069" stop-color="#2DA771"/>
<stop offset="0.476" stop-color="#15CF74"/>
<stop offset="0.801" stop-color="#06E775"/>
<stop offset="1" stop-color="#00F076"/>
</linearGradient>
</defs>
</svg>
