<svg width="124" height="33" viewBox="0 0 124 33" fill="none" xmlns="http://www.w3.org/2000/svg">
<path d="M36.87 10.8299H39.87V22.9599H36.87V10.8299ZM41.06 18.3799C41.06 15.3799 42.9 13.5899 45.74 13.5899C48.58 13.5899 50.42 15.3799 50.42 18.3799C50.42 21.3799 48.62 23.1799 45.74 23.1799C42.86 23.1799 41.06 21.4299 41.06 18.3799ZM47.41 18.3799C47.41 16.7299 46.76 15.7599 45.74 15.7599C44.72 15.7599 44.08 16.7599 44.08 18.3799C44.08 19.9999 44.71 20.9799 45.74 20.9799C46.77 20.9799 47.41 20.0599 47.41 18.3899V18.3799ZM51.55 23.5499H54.43C54.5671 23.8544 54.7988 24.1065 55.0907 24.2687C55.3826 24.4308 55.7191 24.4944 56.05 24.4499C57.19 24.4499 57.79 23.8299 57.79 22.9299V21.2499H57.73C57.491 21.7648 57.1031 22.1962 56.6165 22.4886C56.1299 22.7809 55.5668 22.9207 55 22.8899C52.81 22.8899 51.36 21.2199 51.36 18.3499C51.36 15.4799 52.74 13.6699 55.04 13.6699C55.6246 13.647 56.2022 13.8033 56.6955 14.1178C57.1888 14.4324 57.5742 14.8902 57.8 15.4299V13.7599H60.8V22.8599C60.8 25.0499 58.87 26.4099 56.02 26.4099C53.37 26.4099 51.72 25.2199 51.55 23.5599V23.5499ZM57.8 18.3699C57.8 16.9099 57.13 15.9899 56.07 15.9899C55.01 15.9899 54.36 16.8999 54.36 18.3699C54.36 19.8399 55 20.6699 56.07 20.6699C57.14 20.6699 57.8 19.8599 57.8 18.3799V18.3699ZM61.93 18.3699C61.93 15.3699 63.77 13.5799 66.61 13.5799C69.45 13.5799 71.3 15.3699 71.3 18.3699C71.3 21.3699 69.5 23.1699 66.61 23.1699C63.72 23.1699 61.93 21.4299 61.93 18.3799V18.3699ZM68.28 18.3699C68.28 16.7199 67.63 15.7499 66.61 15.7499C65.59 15.7499 65 16.7599 65 18.3899C65 20.0199 65.63 20.9899 66.65 20.9899C67.67 20.9899 68.28 20.0599 68.28 18.3899V18.3699ZM72.44 11.5799C72.4321 11.277 72.5144 10.9786 72.6763 10.7226C72.8383 10.4665 73.0726 10.2642 73.3496 10.1415C73.6266 10.0187 73.9338 9.98095 74.2323 10.033C74.5308 10.0851 74.8071 10.2246 75.0262 10.4338C75.2454 10.6431 75.3974 10.9127 75.4631 11.2085C75.5288 11.5043 75.5052 11.8129 75.3952 12.0953C75.2853 12.3776 75.094 12.621 74.8456 12.7945C74.5973 12.968 74.3029 13.0639 74 13.0699C73.7992 13.0837 73.5977 13.0558 73.4082 12.988C73.2186 12.9202 73.0452 12.814 72.8987 12.6759C72.7522 12.5379 72.6358 12.371 72.5569 12.1858C72.4779 12.0007 72.4381 11.8012 72.44 11.5999V11.5799ZM72.44 13.7799H75.44V22.9599H72.44V13.7799ZM86.33 18.3699C86.33 21.3699 85 23.0799 82.72 23.0799C82.1354 23.1174 81.5533 22.9745 81.0525 22.6705C80.5517 22.3664 80.1564 21.9159 79.92 21.3799H79.86V25.8999H76.86V13.7599H79.86V15.3999H79.92C80.1454 14.855 80.5332 14.3928 81.0306 14.0761C81.528 13.7594 82.1109 13.6036 82.7 13.6299C85 13.6699 86.37 15.3899 86.37 18.3899L86.33 18.3699ZM83.33 18.3699C83.33 16.9099 82.66 15.9799 81.61 15.9799C80.56 15.9799 79.89 16.9199 79.88 18.3699C79.87 19.8199 80.56 20.7499 81.61 20.7499C82.66 20.7499 83.33 19.8399 83.33 18.3899V18.3699ZM91.48 13.5699C93.97 13.5699 95.48 14.7499 95.55 16.6399H92.82C92.82 15.9899 92.28 15.5799 91.45 15.5799C90.62 15.5799 90.25 15.8999 90.25 16.3699C90.25 16.8399 90.58 16.9899 91.25 17.1299L93.17 17.5199C95 17.9099 95.78 18.6499 95.78 20.0399C95.78 21.9399 94.05 23.1599 91.5 23.1599C88.95 23.1599 87.28 21.9399 87.15 20.0699H90.04C90.13 20.7499 90.67 21.1499 91.55 21.1499C92.43 21.1499 92.83 20.8599 92.83 20.3799C92.83 19.9 92.55 19.7999 91.83 19.6499L90.1 19.2799C88.31 18.9099 87.37 17.9599 87.37 16.5599C87.39 14.7599 89 13.5899 91.48 13.5899V13.5699ZM105.79 22.9399H102.9V21.2299H102.84C102.681 21.804 102.331 22.3065 101.847 22.654C101.363 23.0014 100.775 23.1729 100.18 23.1399C99.7242 23.1658 99.2682 23.0936 98.8427 22.9281C98.4172 22.7626 98.0322 22.5078 97.7137 22.1807C97.3952 21.8537 97.1505 21.462 96.9964 21.0323C96.8422 20.6026 96.7821 20.1448 96.82 19.6899V13.7599H99.82V18.9999C99.82 20.0899 100.38 20.6699 101.31 20.6699C101.528 20.6703 101.744 20.6242 101.943 20.5345C102.141 20.4448 102.319 20.3136 102.463 20.1498C102.606 19.9859 102.714 19.7932 102.777 19.5846C102.84 19.3759 102.859 19.1561 102.83 18.9399V13.7599H105.83L105.79 22.9399ZM107.24 13.7599H110.14V15.5299H110.2C110.359 14.9634 110.702 14.4656 111.174 14.1146C111.646 13.7636 112.222 13.579 112.81 13.5899C113.409 13.542 114.003 13.7211 114.476 14.0917C114.948 14.4623 115.264 14.9971 115.36 15.5899H115.42C115.601 14.9908 115.977 14.4692 116.488 14.1071C116.998 13.745 117.615 13.563 118.24 13.5899C118.648 13.5762 119.054 13.6485 119.432 13.8021C119.811 13.9556 120.152 14.1871 120.435 14.4813C120.718 14.7756 120.936 15.1261 121.075 15.51C121.213 15.8939 121.27 16.3028 121.24 16.7099V22.9599H118.24V17.5099C118.24 16.5099 117.79 16.0499 116.95 16.0499C116.763 16.0483 116.577 16.0869 116.406 16.1631C116.235 16.2393 116.082 16.3513 115.958 16.4916C115.834 16.6319 115.741 16.7971 115.686 16.9762C115.631 17.1554 115.616 17.3442 115.64 17.5299V22.9599H112.79V17.4699C112.79 16.5499 112.34 16.0499 111.52 16.0499C111.331 16.05 111.143 16.0902 110.971 16.1679C110.798 16.2457 110.643 16.3592 110.518 16.5009C110.392 16.6426 110.298 16.8094 110.241 16.9903C110.185 17.1711 110.167 17.3618 110.19 17.5499V22.9599H107.19L107.24 13.7599Z" fill="#222222"/>
<path d="M28.48 11.3799C27.9711 10.2163 27.2976 9.13183 26.48 8.1599C25.2715 6.68024 23.7633 5.47329 22.0547 4.6185C20.3461 3.76372 18.4758 3.28047 16.567 3.20056C14.6582 3.12065 12.7541 3.44589 10.98 4.15489C9.20594 4.86388 7.60214 5.94055 6.27417 7.31403C4.94619 8.6875 3.92414 10.3267 3.27529 12.1236C2.62644 13.9205 2.36549 15.8345 2.50963 17.7395C2.65378 19.6446 3.19973 21.4975 4.11157 23.1763C5.02341 24.8552 6.28046 26.3219 7.79998 27.4799C8.77498 28.2378 9.85233 28.8539 11 29.3099C12.609 29.9693 14.3311 30.3089 16.07 30.3099C19.6594 30.302 23.0992 28.8712 25.6355 26.3312C28.1717 23.7912 29.5974 20.3493 29.6 16.7599C29.6026 14.9084 29.2213 13.0765 28.48 11.3799ZM16.06 5.94989C17.6216 5.94973 19.1643 6.29103 20.58 6.94989C20.2348 7.09906 19.8718 7.20325 19.5 7.2599C18.2766 7.43699 17.1433 8.00497 16.2692 8.87907C15.3951 9.75316 14.8271 10.8865 14.65 12.1099C14.5723 12.796 14.2602 13.4343 13.7665 13.9171C13.2728 14.3999 12.6277 14.6975 11.94 14.7599C10.7166 14.937 9.58324 15.505 8.70915 16.3791C7.83506 17.2532 7.26707 18.3865 7.08998 19.6099C7.03002 20.2623 6.75167 20.8754 6.29998 21.3499C5.52063 19.7032 5.17053 17.886 5.28225 16.0676C5.39397 14.2492 5.96388 12.4886 6.93895 10.9496C7.91401 9.41069 9.26255 8.14341 10.8591 7.26574C12.4556 6.38807 14.2482 5.92854 16.07 5.92989L16.06 5.94989ZM7.78998 23.7599C7.90998 23.6499 8.02998 23.5499 8.14998 23.4299C9.03963 22.5674 9.61069 21.4288 9.76998 20.1999C9.83456 19.5091 10.143 18.8639 10.64 18.3799C11.1183 17.8821 11.762 17.5762 12.45 17.5199C13.6734 17.3428 14.8067 16.7748 15.6808 15.9007C16.5549 15.0266 17.1229 13.8933 17.3 12.6699C17.3433 11.9474 17.6533 11.2667 18.17 10.7599C18.6601 10.2718 19.3099 9.977 20 9.92989C21.1239 9.77526 22.1721 9.27561 23 8.4999C23.9427 9.28197 24.7413 10.2228 25.36 11.2799C25.322 11.3312 25.2784 11.3782 25.23 11.4199C24.7527 11.9221 24.1098 12.2347 23.42 12.2999C22.1953 12.4739 21.0603 13.0409 20.1856 13.9155C19.311 14.7902 18.744 15.9252 18.57 17.1499C18.4995 17.8383 18.1932 18.4812 17.703 18.9696C17.2127 19.4581 16.5687 19.762 15.88 19.8299C14.653 20.0056 13.5155 20.5725 12.6363 21.4462C11.7572 22.32 11.1833 23.454 11 24.6799C10.9462 25.1686 10.7783 25.6379 10.51 26.0499C9.48397 25.4407 8.56507 24.6671 7.78998 23.7599ZM16.06 27.6199C15.0453 27.621 14.0354 27.4796 13.06 27.1999C13.3937 26.5779 13.6106 25.9 13.7 25.1999C13.7701 24.513 14.075 23.8713 14.5632 23.3831C15.0514 22.8949 15.6931 22.59 16.38 22.5199C17.6052 22.3448 18.7408 21.7777 19.6169 20.9034C20.4929 20.0292 21.0624 18.8947 21.24 17.6699C21.3101 16.983 21.615 16.3413 22.1032 15.8531C22.5914 15.3649 23.2331 15.06 23.92 14.9899C24.842 14.87 25.7208 14.5267 26.48 13.9899C26.9016 15.5878 26.9515 17.261 26.626 18.8812C26.3005 20.5014 25.6081 22.0256 24.6021 23.3367C23.5961 24.6477 22.3032 25.711 20.8224 26.4448C19.3417 27.1786 17.7126 27.5635 16.06 27.5699V27.6199Z" fill="#222222"/>
</svg>
