<svg width="134" height="36" viewBox="0 0 134 36" fill="none" xmlns="http://www.w3.org/2000/svg">
<path d="M39.0935 11.5201H42.3521V24.5201H39.0935V11.5201ZM43.6515 19.6301C43.6515 16.4101 45.6818 14.4801 48.7273 14.4801C51.7727 14.4801 53.8031 16.4101 53.8031 19.6301C53.8031 22.8501 51.8438 24.8001 48.7273 24.8001C45.6108 24.8001 43.6515 22.9201 43.6515 19.6301ZM50.5749 19.6301C50.5749 17.8601 49.8744 16.8201 48.7577 16.8201C47.6411 16.8201 46.9508 17.8201 46.9508 19.6301C46.9508 21.4401 47.6411 22.4301 48.7577 22.4301C49.8744 22.4301 50.5952 21.4401 50.5952 19.6401L50.5749 19.6301ZM55.1024 25.1901H58.2494C58.3927 25.5238 58.6429 25.8023 58.9618 25.9828C59.2808 26.1634 59.6509 26.2362 60.0158 26.1901C61.2644 26.1901 61.9141 25.5301 61.9141 24.5501V22.7501H61.9243C61.6554 23.3106 61.2205 23.7777 60.6769 24.0901C60.1333 24.4025 59.5065 24.5454 58.8788 24.5001C56.4932 24.5001 54.9096 22.7101 54.9096 19.6301C54.9096 16.5501 56.4221 14.6301 58.9702 14.6301C59.6139 14.5962 60.2525 14.7597 60.7979 15.0982C61.3433 15.4367 61.7687 15.9335 62.0156 16.5201H61.9243V14.7101H65.1524V24.4501C65.1524 26.8001 63.0409 28.2701 59.9346 28.2701C57.1124 28.2601 55.3055 26.9901 55.1227 25.2001L55.1024 25.1901ZM61.9243 19.6301C61.9243 18.0601 61.1934 17.0701 60.0361 17.0701C58.8788 17.0701 58.1682 18.0701 58.1682 19.6301C58.1682 21.1901 58.8687 22.1101 60.0361 22.1101C61.2035 22.1101 61.9243 21.2601 61.9243 19.6301ZM66.4417 19.6301C66.4417 16.4101 68.472 14.4801 71.5174 14.4801C74.5629 14.4801 76.5932 16.4101 76.5932 19.6301C76.5932 22.8501 74.6238 24.8001 71.5174 24.8001C68.4111 24.8001 66.462 22.9201 66.462 19.6301H66.4417ZM73.365 19.6301C73.365 17.8601 72.6544 16.8201 71.5479 16.8201C70.4414 16.8201 69.7409 17.8201 69.7409 19.6301C69.7409 21.4401 70.4312 22.4301 71.5479 22.4301C72.6646 22.4301 73.3853 21.4401 73.3853 19.6401L73.365 19.6301ZM77.9129 12.3401C77.8987 12.0131 77.9842 11.6894 78.1583 11.4107C78.3324 11.1319 78.5872 10.9109 78.8899 10.776C79.1926 10.641 79.5293 10.5984 79.8568 10.6536C80.1843 10.7087 80.4875 10.8591 80.7275 11.0854C80.9675 11.3118 81.1333 11.6036 81.2035 11.9235C81.2737 12.2434 81.2451 12.5767 81.1215 12.8804C80.9978 13.1842 80.7848 13.4446 80.5097 13.6281C80.2346 13.8116 79.91 13.9098 79.5777 13.9101C79.3655 13.9154 79.1541 13.8791 78.9562 13.8034C78.7582 13.7276 78.5774 13.6138 78.4244 13.4687C78.2715 13.3236 78.1492 13.15 78.065 12.9579C77.9806 12.7659 77.9358 12.5593 77.9332 12.3501L77.9129 12.3401ZM77.9129 14.7001H81.2121V24.5601H77.9637L77.9129 14.7001ZM93.0793 19.6301C93.0793 22.8401 91.6175 24.7001 89.1303 24.7001C88.4936 24.7388 87.8602 24.584 87.3155 24.2568C86.7709 23.9295 86.3414 23.4455 86.0849 22.8701H86.024V27.7301H82.7653V14.7301H86.0037V16.4901H86.0646C86.3123 15.9034 86.7376 15.4061 87.2825 15.0661C87.8276 14.7261 88.4657 14.5599 89.11 14.5901C91.6682 14.5701 93.1402 16.4201 93.1402 19.6401L93.0793 19.6301ZM89.7597 19.6301C89.7597 18.0701 89.0187 17.0601 87.8715 17.0601C86.7244 17.0601 86.0037 18.0601 85.9935 19.6301C85.9834 21.2001 86.7244 22.1901 87.8715 22.1901C89.0187 22.1901 89.8206 21.2601 89.8206 19.6401L89.7597 19.6301ZM98.6423 14.4701C101.373 14.4701 103.068 15.7401 103.089 17.7801H100.114C100.114 17.0701 99.5153 16.6301 98.622 16.6301C97.7287 16.6301 97.3023 16.9701 97.3023 17.4801C97.3023 17.9901 97.6779 18.1501 98.4291 18.3001L100.52 18.7201C102.551 19.1401 103.363 19.9401 103.363 21.4301C103.363 23.4301 101.485 24.7901 98.6931 24.7901C95.9014 24.7901 94.0843 23.4701 93.9523 21.4601H97.1094C97.2008 22.1901 97.7896 22.6201 98.7438 22.6201C99.698 22.6201 100.145 22.3201 100.145 21.7901C100.145 21.2601 99.8402 21.1701 99.0585 21.0101L97.1703 20.6201C95.2111 20.2101 94.1858 19.2001 94.1858 17.6901C94.2467 15.7301 95.9521 14.4801 98.7032 14.4801L98.6423 14.4701ZM114.276 24.5501H111.118V22.7001H111.058C110.881 23.3172 110.496 23.8565 109.966 24.2291C109.436 24.6018 108.794 24.7855 108.144 24.7501C107.654 24.7658 107.164 24.6792 106.711 24.4958C106.257 24.3125 105.847 24.0366 105.509 23.6863C105.17 23.3359 104.911 22.919 104.747 22.463C104.584 22.007 104.52 21.522 104.561 21.0401V14.7101H107.819V20.3501C107.819 21.5101 108.438 22.1401 109.454 22.1401C109.692 22.1383 109.927 22.0862 110.143 21.9874C110.359 21.8885 110.551 21.7451 110.705 21.5669C110.861 21.3887 110.975 21.1798 111.041 20.9544C111.106 20.7289 111.123 20.4922 111.088 20.2601V14.7101H114.337L114.276 24.5501ZM115.849 14.7001H119.016V16.6001H119.087C119.262 15.9914 119.638 15.4571 120.153 15.0807C120.67 14.7044 121.298 14.5072 121.94 14.5201C122.585 14.4649 123.227 14.6485 123.741 15.035C124.256 15.4215 124.605 15.9832 124.722 16.6101H124.864C125.067 15.9798 125.475 15.4332 126.026 15.0553C126.576 14.6773 127.239 14.4892 127.909 14.5201C128.355 14.5034 128.799 14.5796 129.213 14.7437C129.627 14.9077 130 15.156 130.31 15.4723C130.62 15.7885 130.857 16.1656 131.008 16.5788C131.161 16.992 131.222 17.432 131.188 17.8701V24.5601H127.909V18.6901C127.909 17.6901 127.432 17.1301 126.508 17.1301C126.303 17.1268 126.1 17.1672 125.912 17.2484C125.725 17.3297 125.558 17.45 125.422 17.601C125.286 17.7521 125.184 17.9302 125.125 18.1234C125.066 18.3166 125.049 18.5201 125.077 18.7201V24.5601H121.97V18.6601C121.97 17.6601 121.473 17.1301 120.58 17.1301C120.373 17.1285 120.168 17.1705 119.979 17.2533C119.789 17.3362 119.62 17.4579 119.482 17.6104C119.345 17.7629 119.243 17.9426 119.182 18.1374C119.12 18.3323 119.102 18.5378 119.128 18.7401V24.5601H115.869L115.849 14.7001Z" fill="#222222"/>
<path d="M32.6473 12.37C32.6474 10.3797 32.0373 8.43574 30.8969 6.7928C29.7565 5.14986 28.1388 3.88451 26.256 3.16251C24.3732 2.4405 22.3129 2.2955 20.345 2.74649C18.377 3.19748 16.5933 4.22344 15.2273 5.68998H2.55823V32.03H29.3075V19.72C30.3573 18.795 31.1975 17.6623 31.7729 16.3958C32.3484 15.1293 32.6464 13.7576 32.6473 12.37ZM27.5005 12.37C27.5025 13.3237 27.2173 14.2566 26.6808 15.0506C26.1443 15.8445 25.3809 16.4639 24.487 16.8302C23.5931 17.1966 22.609 17.2935 21.6591 17.1086C20.7093 16.9238 19.8365 16.4655 19.1512 15.7918C18.4658 15.1181 17.9989 14.2593 17.8092 13.324C17.6196 12.3888 17.7159 11.4191 18.086 10.5378C18.456 9.65644 19.0831 8.90307 19.888 8.373C20.6929 7.84293 21.6393 7.55999 22.6075 7.55998C23.9034 7.55998 25.1464 8.06643 26.0637 8.96819C26.9811 9.86995 27.4978 11.0934 27.5005 12.37ZM24.1606 26.96H7.70505V10.76H12.7199C12.623 11.2915 12.5721 11.8301 12.5676 12.37C12.5703 14.9922 13.6289 17.5062 15.5112 19.3604C17.3934 21.2145 19.9455 22.2574 22.6075 22.26C23.1279 22.2573 23.6473 22.2138 24.1606 22.13V26.96Z" fill="#222222"/>
</svg>
