<svg width="138" height="37" viewBox="0 0 138 37" fill="none" xmlns="http://www.w3.org/2000/svg">
<path d="M11.3079 33.4146L8.05542 27.7812L12.8286 19.5366L15.8617 24.7905L33.7669 24.7809L28.6862 33.4924L11.3079 33.4146Z" fill="#222222"/>
<path d="M36.9641 19.1872L33.7117 24.8205L24.1851 24.8093L27.2185 19.5555L18.2576 4.05396L28.3423 4.09821L36.9641 19.1872Z" fill="#222222"/>
<path d="M11.809 4.02393H18.3139L23.0674 12.28L17.0007 12.2797L8.05657 27.7909L3.05249 19.0352L11.809 4.02393Z" fill="#222222"/>
<path fill-rule="evenodd" clip-rule="evenodd" d="M19.107 2.71969L19.0876 2.68604H11.0406L1.50757 19.0285L8.05151 30.4785L8.05954 30.4646L10.5334 34.7495L29.4528 34.8341L36.0969 23.4418H36.0527L38.5071 19.1907L29.1207 2.76362L19.107 2.71969ZM25.3318 13.6181H25.382L20.6517 5.4026L27.5638 5.43291L35.421 19.1838L32.9617 23.4436L26.5167 23.447L28.7638 19.5551L25.3318 13.6181ZM17.4683 5.36209L20.6937 10.9419L16.2279 10.9418L8.58238 24.2007L8.06086 25.1016L4.59773 19.0421L12.5777 5.36209H17.4683ZM14.3672 19.5257L17.7738 13.6179L22.2408 13.6181L25.6732 19.5559L23.4256 23.4487L16.6341 23.4524L14.3672 19.5257ZM9.6036 27.7868L10.8996 25.5393L12.8269 22.2102L15.0894 26.1293L21.8799 26.1256L21.8689 26.1446L31.4161 26.1559L27.9196 32.1512L12.0824 32.0803L9.6036 27.7868Z" fill="#222222"/>
<path d="M87.2459 12.4789C88.1623 12.4789 88.9068 11.7343 88.9068 10.7989C88.9068 9.86339 88.1623 9.13794 87.2459 9.13794C86.3105 9.13794 85.5659 9.86339 85.5659 10.7989C85.5659 11.7343 86.3105 12.4789 87.2459 12.4789ZM85.7568 23.5134H88.7159V13.968H85.7568V23.5134Z" fill="#222222"/>
<path d="M90.4385 28.0952H93.3404V22.5588C93.894 23.2843 95.154 23.7806 96.4713 23.7806C99.3158 23.7806 101.034 21.6043 100.958 18.5879C100.881 15.5142 99.1058 13.6624 96.4522 13.6624C95.0967 13.6624 93.8176 14.2542 93.2831 15.1324L93.1304 13.9679H90.4385V28.0952ZM93.3976 18.7406C93.3976 17.3088 94.3522 16.3543 95.7267 16.3543C97.1204 16.3543 97.9986 17.3279 97.9986 18.7406C97.9986 20.1533 97.1204 21.127 95.7267 21.127C94.3522 21.127 93.3976 20.1724 93.3976 18.7406Z" fill="#222222"/>
<path d="M101.271 20.497C101.347 22.4252 102.875 23.7615 105.28 23.7615C107.59 23.7615 109.194 22.5397 109.194 20.5733C109.194 19.1606 108.354 18.2252 106.788 17.8433L105.089 17.4233C104.478 17.2706 104.096 17.1179 104.096 16.6215C104.096 16.1252 104.497 15.8006 105.089 15.8006C105.757 15.8006 106.196 16.2397 106.177 16.8888H108.831C108.755 14.9033 107.246 13.6624 105.146 13.6624C103.027 13.6624 101.443 14.9224 101.443 16.8315C101.443 18.1106 102.149 19.1606 104.039 19.657L105.719 20.0961C106.215 20.2297 106.425 20.4588 106.425 20.7833C106.425 21.2606 105.986 21.5661 105.242 21.5661C104.383 21.5661 103.925 21.1652 103.925 20.497H101.271Z" fill="#222222"/>
<path d="M113.694 23.7616C114.858 23.7616 116.023 23.2271 116.615 22.4444L116.806 23.5134H119.574V13.968H116.634V18.9316C116.634 20.3634 116.214 21.1462 114.858 21.1462C113.808 21.1462 113.121 20.6689 113.121 18.8934V13.968H110.181V19.9625C110.181 22.2344 111.441 23.7616 113.694 23.7616Z" fill="#222222"/>
<path d="M124.236 23.5133V18.3015C124.236 16.6979 125.095 16.2397 125.935 16.2397C126.871 16.2397 127.482 16.8124 127.482 17.9961V23.5133H130.383V18.3015C130.383 16.6788 131.223 16.2206 132.063 16.2206C132.999 16.2206 133.629 16.7933 133.629 17.9961V23.5133H136.492V17.2706C136.492 15.0942 135.347 13.6433 132.884 13.6433C131.51 13.6433 130.383 14.3115 129.887 15.3424C129.314 14.3115 128.322 13.6433 126.737 13.6433C125.687 13.6433 124.713 14.1206 124.141 14.8842L124.026 13.9679H121.277V23.5133H124.236Z" fill="#222222"/>
<path d="M46.9241 9.38745H43.7932V23.5148H52.4605V20.7466H46.9241V9.38745Z" fill="#222222"/>
<path d="M52.7595 18.723C52.7595 21.7393 54.7832 23.7439 57.8377 23.7439C60.8732 23.7439 62.8968 21.7393 62.8968 18.723C62.8968 15.7066 60.8732 13.6829 57.8377 13.6829C54.7832 13.6829 52.7595 15.7066 52.7595 18.723ZM55.7186 18.7039C55.7186 17.272 56.5586 16.3175 57.8377 16.3175C59.0977 16.3175 59.9377 17.272 59.9377 18.7039C59.9377 20.1548 59.0977 21.1093 57.8377 21.1093C56.5586 21.1093 55.7186 20.1548 55.7186 18.7039Z" fill="#222222"/>
<path d="M63.3696 18.5702C63.3696 21.453 65.2406 23.4002 67.8942 23.4002C69.1733 23.4002 70.2806 22.9421 70.8342 22.1975V23.5148C70.8342 24.8321 70.0133 25.7102 68.5624 25.7102C67.2642 25.7102 66.3669 25.0993 66.3096 24.0111H63.3315C63.5987 26.6266 65.6224 28.383 68.3906 28.383C71.6551 28.383 73.7169 26.2639 73.7169 22.9039V13.9693H71.0633L70.9106 14.943C70.376 14.1602 69.2497 13.6448 67.9515 13.6448C65.2787 13.6448 63.3696 15.6493 63.3696 18.5702ZM66.3478 18.4939C66.3478 17.1193 67.2642 16.203 68.4287 16.203C69.7842 16.203 70.7769 17.1002 70.7769 18.4939C70.7769 19.8875 69.8033 20.842 68.4478 20.842C67.2833 20.842 66.3478 19.8875 66.3478 18.4939Z" fill="#222222"/>
<path d="M74.574 18.723C74.574 21.7393 76.5976 23.7439 79.6522 23.7439C82.6876 23.7439 84.7113 21.7393 84.7113 18.723C84.7113 15.7066 82.6876 13.6829 79.6522 13.6829C76.5976 13.6829 74.574 15.7066 74.574 18.723ZM77.5331 18.7039C77.5331 17.272 78.3731 16.3175 79.6522 16.3175C80.9122 16.3175 81.7522 17.272 81.7522 18.7039C81.7522 20.1548 80.9122 21.1093 79.6522 21.1093C78.3731 21.1093 77.5331 20.1548 77.5331 18.7039Z" fill="#222222"/>
</svg>
