<svg width="171" height="33" viewBox="0 0 171 33" fill="none" xmlns="http://www.w3.org/2000/svg">
<g clip-path="url(#clip0_7_2189)">
<path d="M67.5821 7.04395H64V23.2072H73.9164V20.0401H67.5821V7.04395Z" fill="#222222"/>
<path d="M74.2585 17.7249C74.2585 21.176 76.5738 23.4694 80.0685 23.4694C83.5414 23.4694 85.8567 21.176 85.8567 17.7249C85.8567 14.2738 83.5414 11.9585 80.0685 11.9585C76.5738 11.9585 74.2585 14.2738 74.2585 17.7249ZM77.644 17.703C77.644 16.0649 78.6051 14.9728 80.0685 14.9728C81.5101 14.9728 82.4712 16.0649 82.4712 17.703C82.4712 19.3631 81.5101 20.4552 80.0685 20.4552C78.6051 20.4552 77.644 19.3631 77.644 17.703Z" fill="#222222"/>
<path d="M86.3977 17.5501C86.3977 20.8482 88.5383 23.0761 91.5743 23.0761C93.0378 23.0761 94.3046 22.5519 94.938 21.7001V23.2072C94.938 24.7143 93.9988 25.719 92.3388 25.719C90.8535 25.719 89.8269 25.0201 89.7614 23.7751H86.354C86.6598 26.7675 88.9751 28.7769 92.1422 28.7769C95.8772 28.7769 98.2362 26.3525 98.2362 22.5082V12.2861H95.2001L95.0254 13.4C94.4138 12.5045 93.1251 11.9148 91.6399 11.9148C88.5819 11.9148 86.3977 14.2082 86.3977 17.5501ZM89.8051 17.4627C89.8051 15.89 90.8535 14.8416 92.1859 14.8416C93.7367 14.8416 94.8725 15.8682 94.8725 17.4627C94.8725 19.0572 93.7585 20.1493 92.2077 20.1493C90.8754 20.1493 89.8051 19.0572 89.8051 17.4627Z" fill="#222222"/>
<path d="M99.2166 17.7249C99.2166 21.176 101.532 23.4694 105.027 23.4694C108.5 23.4694 110.815 21.176 110.815 17.7249C110.815 14.2738 108.5 11.9585 105.027 11.9585C101.532 11.9585 99.2166 14.2738 99.2166 17.7249ZM102.602 17.703C102.602 16.0649 103.563 14.9728 105.027 14.9728C106.468 14.9728 107.429 16.0649 107.429 17.703C107.429 19.3631 106.468 20.4552 105.027 20.4552C103.563 20.4552 102.602 19.3631 102.602 17.703Z" fill="#222222"/>
<path d="M113.715 10.5824C114.763 10.5824 115.615 9.73055 115.615 8.66028C115.615 7.59001 114.763 6.76001 113.715 6.76001C112.645 6.76001 111.793 7.59001 111.793 8.66028C111.793 9.73055 112.645 10.5824 113.715 10.5824ZM112.011 23.2072H115.397V12.2861H112.011V23.2072Z" fill="#222222"/>
<path d="M117.368 28.4492H120.688V22.115C121.321 22.945 122.763 23.5129 124.27 23.5129C127.524 23.5129 129.49 21.0229 129.403 17.5718C129.315 14.0552 127.284 11.9365 124.248 11.9365C122.697 11.9365 121.234 12.6136 120.622 13.6184L120.447 12.286H117.368V28.4492ZM120.753 17.7465C120.753 16.1084 121.845 15.0163 123.418 15.0163C125.012 15.0163 126.017 16.1302 126.017 17.7465C126.017 19.3629 125.012 20.4768 123.418 20.4768C121.845 20.4768 120.753 19.3847 120.753 17.7465Z" fill="#222222"/>
<path d="M129.761 19.756C129.848 21.9621 131.596 23.491 134.348 23.491C136.991 23.491 138.826 22.0931 138.826 19.8434C138.826 18.2271 137.865 17.1568 136.073 16.7199L134.13 16.2394C133.431 16.0647 132.994 15.8899 132.994 15.322C132.994 14.7541 133.452 14.3828 134.13 14.3828C134.894 14.3828 135.396 14.8852 135.375 15.6278H138.411C138.323 13.3562 136.598 11.9365 134.195 11.9365C131.771 11.9365 129.958 13.3781 129.958 15.5623C129.958 17.0257 130.766 18.2271 132.928 18.795L134.85 19.2973C135.418 19.4502 135.658 19.7123 135.658 20.0836C135.658 20.6297 135.156 20.9792 134.304 20.9792C133.321 20.9792 132.797 20.5205 132.797 19.756H129.761Z" fill="#222222"/>
<path d="M143.974 23.4911C145.307 23.4911 146.639 22.8795 147.316 21.984L147.535 23.2072H150.702V12.2861H147.338V17.9651C147.338 19.6032 146.858 20.4987 145.307 20.4987C144.105 20.4987 143.319 19.9527 143.319 17.9214V12.2861H139.955V19.1445C139.955 21.7438 141.397 23.4911 143.974 23.4911Z" fill="#222222"/>
<path d="M156.036 23.2072V17.2443C156.036 15.4095 157.019 14.8853 157.98 14.8853C159.05 14.8853 159.749 15.5406 159.749 16.8948V23.2072H163.069V17.2443C163.069 15.3877 164.03 14.8635 164.991 14.8635C166.061 14.8635 166.782 15.5187 166.782 16.8948V23.2072H170.059V16.0648C170.059 13.5748 168.748 11.9148 165.93 11.9148C164.358 11.9148 163.069 12.6792 162.501 13.8587C161.846 12.6792 160.71 11.9148 158.897 11.9148C157.696 11.9148 156.582 12.4608 155.927 13.3345L155.796 12.2861H152.65V23.2072H156.036Z" fill="#222222"/>
<path d="M0 16.76C0 7.92345 7.16344 0.76001 16 0.76001H37C45.8366 0.76001 53 7.92345 53 16.76V32.76H16C7.16344 32.76 0 25.5966 0 16.76Z" fill="#222222"/>
<path d="M37 6.76001H16C10.4772 6.76001 6 11.2372 6 16.76C6 22.2829 10.4772 26.76 16 26.76H37C42.5228 26.76 47 22.2829 47 16.76C47 11.2372 42.5228 6.76001 37 6.76001Z" fill="#222222"/>
<path d="M16 21.76C18.7614 21.76 21 19.5214 21 16.76C21 13.9986 18.7614 11.76 16 11.76C13.2386 11.76 11 13.9986 11 16.76C11 19.5214 13.2386 21.76 16 21.76Z" fill="#222222"/>
<path d="M14 15.76C14.5523 15.76 15 15.3123 15 14.76C15 14.2077 14.5523 13.76 14 13.76C13.4477 13.76 13 14.2077 13 14.76C13 15.3123 13.4477 15.76 14 15.76Z" fill="white"/>
<path d="M38 21.76C40.7614 21.76 43 19.5214 43 16.76C43 13.9986 40.7614 11.76 38 11.76C35.2386 11.76 33 13.9986 33 16.76C33 19.5214 35.2386 21.76 38 21.76Z" fill="#222222"/>
<path d="M36 15.76C36.5523 15.76 37 15.3123 37 14.76C37 14.2077 36.5523 13.76 36 13.76C35.4477 13.76 35 14.2077 35 14.76C35 15.3123 35.4477 15.76 36 15.76Z" fill="white"/>
</g>
<defs>
<clipPath id="clip0_7_2189">
<rect width="171" height="32" fill="white" transform="translate(0 0.76001)"/>
</clipPath>
</defs>
</svg>
